# xmcd
#
# Track frame offsets:
#	150
#	15917
#	28116
#	49401
#	62245
#	75483
#	100313
#
# Disc length: 1702 seconds
#
# Revision: 1
# Processed by: cddbd v1.5.2PL0 Copyright (c) Steve Scherf et al.
# Submitted via: audiograbber 1.83.01
#
DISCID=5006a407
DTITLE=Early Roosters - I Just Wanna Dance
DYEAR=2009
DGENRE=Blues
TTITLE0=Let It Roll
TTITLE1=Hush Your Mouth
TTITLE2=I Don't Know
TTITLE3=Sweet Little Angel
TTITLE4=Summertime
TTITLE5=Nobody's Business
TTITLE6=I Just Wanna Dance
EXTD=
EXTT0=
EXTT1=
EXTT2=
EXTT3=
EXTT4=
EXTT5=
EXTT6=
PLAYORDER=
